DataRate=1500.000000
DataType=double
version=3
OpenSimVersion=4.3-2021-08-27-4bc7ad9
endheader
time	f1_1	f1_2	f1_3	p1_1	p1_2	p1_3	m1_1	m1_2	m1_3	f2_1	f2_2	f2_3	p2_1	p2_2	p2_3	m2_1	m2_2	m2_3	f3_1	f3_2	f3_3	p3_1	p3_2	p3_3	m3_1	m3_2	m3_3
2.283333333333333	-27.47769614858599	-35.33709310950908	604.1939262738309	-259.089987039566	398.0210380554199	1.304700013250113	80810.21000944822	-51412.60446901822	2756.87867348894	0	0	-0	251.3170061707497	231.4150097742677	1.697000026702881	0	0	-0	0	0	-0	949.9620513916016	396.987003326416	4.582600176334381	0	0	-0
2.284	-27.50751393249086	-34.86336462581243	602.4078115002545	-259.089987039566	398.0210380554199	1.304700013250113	81077.79760067645	-52030.24504487531	2877.364669848407	0	0	-0	251.3170061707497	231.4150097742677	1.697000026702881	0	0	-0	0	0	-0	949.9620513916016	396.987003326416	4.582600176334381	0	0	-0
2.284666666666666	-27.60574296785233	-38.22164945963218	605.0654103714771	-259.089987039566	398.0210380554199	1.304700013250113	81096.84913375482	-51500.60159853085	2986.44045885309	0	0	-0	251.3170061707497	231.4150097742677	1.697000026702881	0	0	-0	0	0	-0	949.9620513916016	396.987003326416	4.582600176334381	0	0	-0
2.285333333333333	-28.81672951786021	-35.33680734420857	607.5987366746591	-259.089987039566	398.0210380554199	1.304700013250113	81262.19870737106	-52061.89962859421	2931.307594232914	0	0	-0	251.3170061707497	231.4150097742677	1.697000026702881	0	0	-0	0	0	-0	949.9620513916016	396.987003326416	4.582600176334381	0	0	-0
2.286	-28.70119316008516	-35.23025047517425	609.3842925650077	-259.089987039566	398.0210380554199	1.304700013250113	81497.13114185967	-51578.54911629069	2854.756093139397	0	0	-0	251.3170061707497	231.4150097742677	1.697000026702881	0	0	-0	0	0	-0	949.9620513916016	396.987003326416	4.582600176334381	0	0	-0
2.286666666666667	-28.68857196427241	-36.46569447711845	611.2587621210834	-259.089987039566	398.0210380554199	1.304700013250113	81423.50803781694	-51633.49126727237	2988.789893017998	0	0	-0	251.3170061707497	231.4150097742677	1.697000026702881	0	0	-0	0	0	-0	949.9620513916016	396.987003326416	4.582600176334381	0	0	-0
2.287333333333333	-29.25425066990923	-35.84924510659057	609.1998279548287	-259.089987039566	398.0210380554199	1.304700013250113	81623.51206804925	-51240.50017435238	2876.166097370459	0	0	-0	251.3170061707497	231.4150097742677	1.697000026702881	0	0	-0	0	0	-0	949.9620513916016	396.987003326416	4.582600176334381	0	0	-0
2.288	-29.52299973266527	-35.96149316870299	611.9832848973117	-259.089987039566	398.0210380554199	1.304700013250113	81984.48600847794	-51555.81571304264	3218.212230444524	0	0	-0	251.3170061707497	231.4150097742677	1.697000026702881	0	0	-0	0	0	-0	949.9620513916016	396.987003326416	4.582600176334381	0	0	-0
2.288666666666666	-29.94594381561588	-35.09444376861378	610.8223026762656	-259.089987039566	398.0210380554199	1.304700013250113	82113.09995243882	-51644.65051487381	3109.84202520982	0	0	-0	251.3170061707497	231.4150097742677	1.697000026702881	0	0	-0	0	0	-0	949.9620513916016	396.987003326416	4.582600176334381	0	0	-0
2.289333333333333	-29.84545050894969	-35.96885252803274	615.2048780790445	-259.089987039566	398.0210380554199	1.304700013250113	82037.51078656607	-51433.24025224749	3173.219353242503	0	0	-0	251.3170061707497	231.4150097742677	1.697000026702881	0	0	-0	0	0	-0	949.9620513916016	396.987003326416	4.582600176334381	0	0	-0
2.29	-30.10034144014515	-36.10929386742692	616.2886838267875	-259.089987039566	398.0210380554199	1.304700013250113	81914.98782910628	-51544.37514903608	3372.587779448761	0	0	-0	251.3170061707497	231.4150097742677	1.697000026702881	0	0	-0	0	0	-0	949.9620513916016	396.987003326416	4.582600176334381	0	0	-0
2.290666666666667	-30.54168671690999	-36.73552138418543	620.1414679814509	-259.089987039566	398.0210380554199	1.304700013250113	81877.60121680095	-51339.85512780578	3537.496802396645	0	0	-0	251.3170061707497	231.4150097742677	1.697000026702881	0	0	-0	0	0	-0	949.9620513916016	396.987003326416	4.582600176334381	0	0	-0
2.291333333333333	-31.08056390288742	-35.27626771569958	626.2454530488295	-259.089987039566	398.0210380554199	1.304700013250113	82184.8865236766	-51237.71184753536	3628.609335586134	0	0	-0	251.3170061707497	231.4150097742677	1.697000026702881	0	0	-0	0	0	-0	949.9620513916016	396.987003326416	4.582600176334381	0	0	-0
2.292	-29.92264141657843	-34.47624850242188	613.1649562000327	-259.089987039566	398.0210380554199	1.304700013250113	82482.88629223529	-51674.28256323872	3446.883520558677	0	0	-0	251.3170061707497	231.4150097742677	1.697000026702881	0	0	-0	0	0	-0	949.9620513916016	396.987003326416	4.582600176334381	0	0	-0
2.292666666666666	-31.76929955287662	-35.85295410439225	619.525797960271	-259.089987039566	398.0210380554199	1.304700013250113	82087.55106956926	-51211.05915694696	3592.081239745173	0	0	-0	251.3170061707497	231.4150097742677	1.697000026702881	0	0	-0	0	0	-0	949.9620513916016	396.987003326416	4.582600176334381	0	0	-0
2.293333333333333	-31.77165461982194	-36.0133843018969	626.5961734048429	-259.089987039566	398.0210380554199	1.304700013250113	82425.52956652064	-50886.27572477856	3664.279372219978	0	0	-0	251.3170061707497	231.4150097742677	1.697000026702881	0	0	-0	0	0	-0	949.9620513916016	396.987003326416	4.582600176334381	0	0	-0
2.294	-32.71408340609873	-38.53376185200762	624.5855912349255	-259.089987039566	398.0210380554199	1.304700013250113	83232.35054474158	-51152.63153972641	3561.914282302826	0	0	-0	251.3170061707497	231.4150097742677	1.697000026702881	0	0	-0	0	0	-0	949.9620513916016	396.987003326416	4.582600176334381	0	0	-0
2.294666666666667	-31.93462512580403	-35.85695350383404	621.8469175634135	-259.089987039566	398.0210380554199	1.304700013250113	82913.7017121363	-51560.58372951675	3739.803494811279	0	0	-0	251.3170061707497	231.4150097742677	1.697000026702881	0	0	-0	0	0	-0	949.9620513916016	396.987003326416	4.582600176334381	0	0	-0
2.295333333333333	-33.6606740010773	-35.74778862716125	629.3703967281183	-259.089987039566	398.0210380554199	1.304700013250113	83302.94814475988	-50990.29785284224	3787.617973619295	0	0	-0	251.3170061707497	231.4150097742677	1.697000026702881	0	0	-0	0	0	-0	949.9620513916016	396.987003326416	4.582600176334381	0	0	-0
2.296	-34.13251379628812	-36.14584605116362	629.3632264964709	-259.089987039566	398.0210380554199	1.304700013250113	83726.48025117107	-50074.75733786645	3803.048091807562	0	0	-0	251.3170061707497	231.4150097742677	1.697000026702881	0	0	-0	0	0	-0	949.9620513916016	396.987003326416	4.582600176334381	0	0	-0
2.296666666666666	-33.91224352046831	-35.35252989217493	636.0832230875616	-259.089987039566	398.0210380554199	1.304700013250113	84200.48903210599	-50914.12981096016	3944.266216852382	0	0	-0	251.3170061707497	231.4150097742677	1.697000026702881	0	0	-0	0	0	-0	949.9620513916016	396.987003326416	4.582600176334381	0	0	-0
2.297333333333333	-34.57809909586371	-35.39182396587857	628.0238383713844	-259.089987039566	398.0210380554199	1.304700013250113	83786.76239225433	-50961.87981460607	3745.887054007198	0	0	-0	251.3170061707497	231.4150097742677	1.697000026702881	0	0	-0	0	0	-0	949.9620513916016	396.987003326416	4.582600176334381	0	0	-0
2.298	-35.47925401963054	-36.12675440303462	634.7500222429281	-259.089987039566	398.0210380554199	1.304700013250113	83983.42912079828	-50955.88183425778	4198.216764215229	0	0	-0	251.3170061707497	231.4150097742677	1.697000026702881	0	0	-0	0	0	-0	949.9620513916016	396.987003326416	4.582600176334381	0	0	-0
2.298666666666667	-35.79391903798536	-36.27362081237285	637.1692823861797	-259.089987039566	398.0210380554199	1.304700013250113	83352.04242145964	-50808.14658601327	4016.374354227117	0	0	-0	251.3170061707497	231.4150097742677	1.697000026702881	0	0	-0	0	0	-0	949.9620513916016	396.987003326416	4.582600176334381	0	0	-0
2.299333333333333	-36.51089158607691	-35.83671301989724	635.2843689864723	-259.089987039566	398.0210380554199	1.304700013250113	84241.21933767245	-50828.00613642271	4091.432028749047	0	0	-0	251.3170061707497	231.4150097742677	1.697000026702881	0	0	-0	0	0	-0	949.9620513916016	396.987003326416	4.582600176334381	0	0	-0
2.3	-37.39883897438565	-35.82304886332966	632.5931815088541	-259.089987039566	398.0210380554199	1.304700013250113	84785.92922052907	-51390.13682761729	4144.82395436897	0	0	-0	251.3170061707497	231.4150097742677	1.697000026702881	0	0	-0	0	0	-0	949.9620513916016	396.987003326416	4.582600176334381	0	0	-0
2.300666666666666	-37.04460946985353	-36.68594082239091	636.4404705041702	-259.089987039566	398.0210380554199	1.304700013250113	85107.00183651457	-50646.66026909356	4390.070971947525	0	0	-0	251.3170061707497	231.4150097742677	1.697000026702881	0	0	-0	0	0	-0	949.9620513916016	396.987003326416	4.582600176334381	0	0	-0
2.301333333333333	-36.95535572284874	-36.0742164834379	631.8721111552767	-259.089987039566	398.0210380554199	1.304700013250113	84908.40983523133	-50626.40376692216	4129.831314867377	0	0	-0	251.3170061707497	231.4150097742677	1.697000026702881	0	0	-0	0	0	-0	949.9620513916016	396.987003326416	4.582600176334381	0	0	-0
